<svg width="35" height="114" viewBox="0 0 35 114" fill="none" xmlns="http://www.w3.org/2000/svg">
<path d="M34.9993 0V57.0605C35.0272 61.2894 34.1762 65.4768 32.5018 69.3498C30.8275 73.2228 28.3673 76.6946 25.2817 79.5389C20.4387 83.8811 16.513 89.1731 13.7412 95.0958C10.9694 101.018 9.40887 107.449 9.15382 114L9.00038 55.2104C8.98174 52.0109 9.64727 48.8454 10.9511 45.932C12.255 43.0185 14.1661 40.4264 16.5529 38.3343C24.2417 31.5908 34.9993 18.8818 34.9993 0Z" fill="#5C6D60"/>
<path d="M12.5 29C19.4036 29 25 23.1797 25 16C25 8.8203 19.4036 3 12.5 3C5.59644 3 0 8.8203 0 16C0 23.1797 5.59644 29 12.5 29Z" fill="#FF4A11"/>
</svg>
